{"title":"Date Night TS XViD - IMAGiNE","uid":5500690,"size":1497280170,"categoryP":"video","categoryS":"movies","magnet":"?xt=urn:btih:6a39bc0e8b0af9e985a90abbbb1ebedf32c97640&amp;dn=Date+Night+TS+XViD+-+IMAGiNE&amp;tr=udp%3A%2F%2Ftracker.openbittorrent.com%3A80&amp;tr=udp%3A%2F%2Fopen.demonii.com%3A1337&amp;tr=udp%3A%2F%2Ftracker.coppersurfer.tk%3A6969&amp;tr=udp%3A%2F%2Fexodus.desync.com%3A6969","seeders":2,"leechers":0,"uploader":"TvTeam","files":6,"time":1271520240,"description":". \n &lt;a href=&quot;\nhttp://www.torrentday.com&quot; rel=&quot;nofollow&quot; target=&quot;_NEW&quot;&gt;\nhttp://www.torrentday.com&lt;/a&gt;   -    Your Key To The Scene.\n\nNow TvTeam with [No-RAR] Releases.\n\n(((((((((((((= Enjoy No RAR releases =))))))))))))))))))))\n\n...................................NFO:....................................\n\n.      *********** ****    ****      ***      ******** *********** ****    *** **********\n           *+*     +*+*+* *+*+*+   *+* *+*   *+*    *+*    *+*     *+*+*   *+* *+*        \n           +*+     +*+ +*+*+ +*+  +*+   +*+  +*+           +*+     *+*+*+  +*+ +*+        \n           +$+     +$+  +*+  +$+ +$++*++$++* *$*           +$+     +$+ +*+ +$+ +$++*++$  \n           +$+     +$+       +$+ +$+     +$+ +$+   +$+$    +$+     +$+  +$+$+$ +$+        \n           $+$     $+$       $+$ $+$     $+$ $+$    $+$    $+$     $+$   $+$+$ $+$        \n       $$$$$$$$$$$ $$$       $$$ $$$     $$$  $$$$$$$$ $$$$$$$$$$$ $$$    $$$$ $$$$$$$$$$     \n                                                \n\n\n\n                           Another Fine Release Brought to you from - IMAGiNE                   \n                                               \n********************************************************************************************************************                                \n                                     Date Night TS XViD - IMAGiNE\n********************************************************************************************************************\n\nRipper ...........: IMAGiNE                                      IMDB Rating.......:7.1/10                             \nVideo Codec.......: XViD                                         Release Date......:09/04/10\nAudio Codec.......:MP3                                           Theatre Date......:17/04/10\nAudio Bitrate.....:128                                           Runtime.......:1h 22mn\nSubtitles.........:ENG WHEN NEEDED                               Language..........:ENGLISH\nResolution...... 704 x 352                                       IMDb URL..........:http://www.imdb.com/title/tt1279935/\n\n\n\n[color=yellow]DETAILS:[/color]\n\nVideo\nID                               : 0\nFormat                           : MPEG-4 Visual\nFormat profile                   : Advanced Simple@L5\nFormat settings, BVOP            : Yes\nFormat settings, QPel            : No\nFormat settings, GMC             : No warppoints\nFormat settings, Matrix          : Default (MPEG)\nMuxing mode                      : Packed bitstream\nCodec ID                         : XVID\nCodec ID/Hint                    : XviD\nDuration                         : 1h 22mn\nBit rate                         : 2 254 Kbps\nWidth                            : 704 pixels\nHeight                           : 352 pixels\nDisplay aspect ratio             : 2.000\nFrame rate                       : 25.000 fps\nResolution                       : 8 bits\nColorimetry                      : 4:2:0\nScan type                        : Progressive\nBits/(Pixel*Frame)               : 0.364\nStream size                      : 1.29 GiB (94%)\nWriting library                  : XviD 1.2.1 (UTC 2008-12-04)\n\nAudio\nID                               : 1\nFormat                           : MPEG Audio\nFormat version                   : Version 1\nFormat profile                   : Layer 3\nCodec ID                         : 55\nCodec ID/Hint                    : MP3\nDuration                         : 1h 22mn\nBit rate mode                    : Constant\nBit rate                         : 128 Kbps\nChannel(s)                       : 2 channels\nSampling rate                    : 44.1 KHz\nStream size                      : 75.1 MiB (5%)\nAlignment                        : Split accross interleaves\nInterleave, duration             : 40 ms (1.00 video frame)\nInterleave, preload duration     : 500 ms\n\n\n\n\n\n[color=yellow]NOTES:[/color]\n\nIMAGiNE bringing you another release.....Date Night\nOkay this source has some issues to say the least. Before you start complaining we want you to know that this source has a strobing affect to it. It is still very watchable, but still there. Now the colors... This is another one of those blue tinted sources, so the colors are not the best on this release. We have done our normal things to this release, tweaked the colors, sat, and other things. Then synced our line audio to it.","torrent":{"xt":"urn:btih:6a39bc0e8b0af9e985a90abbbb1ebedf32c97640","amp;dn":"Date+Night+TS+XViD+-+IMAGiNE","amp;tr":["udp%3A%2F%2Ftracker.openbittorrent.com%3A80","udp%3A%2F%2Fopen.demonii.com%3A1337","udp%3A%2F%2Ftracker.coppersurfer.tk%3A6969","udp%3A%2F%2Fexodus.desync.com%3A6969"],"infoHash":"6a39bc0e8b0af9e985a90abbbb1ebedf32c97640","infoHashBuffer":{"type":"Buffer","data":[106,57,188,14,139,10,249,233,133,169,10,187,187,30,190,223,50,201,118,64]},"announce":[],"urlList":[]}}